<svg xmlns="http://www.w3.org/2000/svg" viewBox="0 0 24 24" width="1em" height="1em" fill="none" stroke="currentColor" stroke-width="1.5" stroke-linecap="round" stroke-linejoin="round" class="bi bi-sneaker" aria-hidden="true">
  <!-- Outline sneaker: toe, upper, heel, sole and laces -->
  <path d="M2.5 14s2-2 6-2c3 0 6 1 9 2 0 0 1 0.5 1 2 0 0-2 1-5 1-3 0-6-1-9-1-2.5 0-3.5-1-3.5-1z" />
  <path d="M5 10c2-1 6-2 9-1 1 0 2 1 2 1" />
  <path d="M7 8.5c0-.5 1-1 2-1s2 0 3 0" />
  <!-- laces -->
  <line x1="8" y1="10.2" x2="9.5" y2="10" />
  <line x1="9.5" y1="10" x2="11" y2="9.8" />
  <line x1="11" y1="9.8" x2="12.5" y2="9.6" />
</svg>